<svg xmlns="http://www.w3.org/2000/svg" viewBox="-1.562 -1.562 308 74.44" role="img" aria-label="Bower">
  <g transform="translate(-6 -21)">
    <path fill="#0f766e" d="M29 56C21 47 14 40 6 35C11 43 18 52 31 62Z"/>
    <path fill="none" stroke="#d97706" stroke-width="2.6" stroke-linecap="round" stroke-linejoin="round" d="M40 84L39 91M35 91h8"/>
    <path fill="none" stroke="#d97706" stroke-width="2.6" stroke-linecap="round" stroke-linejoin="round" d="M53 85L53 91M49 91h8"/>
    <circle fill="#2dd4bf" cx="46" cy="62" r="24"/>
    <path fill="#0f766e" d="M44 50C57 49 65 59 60 72C49 72 39 64 44 50Z"/>
    <circle fill="#2dd4bf" cx="62" cy="40" r="19"/>
    <circle fill="#99f6e4" fill-opacity=".8" cx="72" cy="46" r="3.2"/>
    <circle fill="#0b1220" cx="68" cy="37" r="5.2"/>
    <circle fill="#ffffff" cx="70" cy="35" r="1.9"/>
    <circle fill="#ffffff" cx="66.4" cy="39.2" r=".9"/>
    <path fill="#fbbf24" d="M80 38L92 42L80 45Z"/>
    <path fill="#d97706" d="M80 43.5L90 42.5L80 47.5Z"/>
  </g>
  <path fill="#0b1220" d="M139.9 46.1Q139.9 51.8 135.9 55.2Q131.9 58.5 124.8 58.5H103.6V13H124.1Q131 13 134.9 16.2Q138.9 19.3 138.9 24.8Q138.9 28.8 136.8 31.5Q134.7 34.1 131.2 35.2Q135.1 36 137.5 39.1Q139.9 42.2 139.9 46.1ZM114.7 31.4H121.9Q124.7 31.4 126.1 30.2Q127.6 29 127.6 26.7Q127.6 24.3 126.1 23.1Q124.7 21.9 121.9 21.9H114.7ZM128.7 44.6Q128.7 42.2 127.1 40.9Q125.5 39.5 122.7 39.5H114.7V49.6H122.8Q125.6 49.6 127.2 48.3Q128.7 47 128.7 44.6ZM143.4 40.4Q143.4 34.8 145.9 30.6Q148.4 26.3 152.7 24.1Q156.9 21.8 162.3 21.8Q167.6 21.8 171.9 24.1Q176.2 26.3 178.6 30.6Q181.1 34.8 181.1 40.4Q181.1 46 178.6 50.3Q176.1 54.5 171.8 56.8Q167.5 59.1 162.1 59.1Q156.8 59.1 152.6 56.8Q148.3 54.5 145.9 50.3Q143.4 46.1 143.4 40.4ZM169.8 40.4Q169.8 36.1 167.6 33.7Q165.4 31.4 162.3 31.4Q159 31.4 156.9 33.7Q154.7 36 154.7 40.4Q154.7 44.8 156.8 47.1Q159 49.4 162.1 49.4Q165.3 49.4 167.6 47.1Q169.8 44.8 169.8 40.4ZM238.3 22.3 228.5 58.5H216.2L210.5 35L204.6 58.5H192.4L182.5 22.3H193.6L198.8 48.2L204.9 22.3H216.6L222.8 48.1L227.8 22.3ZM275.8 43.1H250.7Q250.9 46.5 252.8 48.2Q254.7 50 257.5 50Q261.7 50 263.3 46.5H275.1Q274.2 50.1 271.8 53Q269.5 55.8 265.9 57.4Q262.3 59.1 257.9 59.1Q252.6 59.1 248.4 56.8Q244.3 54.5 242 50.3Q239.6 46.1 239.6 40.4Q239.6 34.8 241.9 30.6Q244.2 26.3 248.4 24.1Q252.5 21.8 257.9 21.8Q263.2 21.8 267.3 24Q271.4 26.2 273.7 30.3Q276 34.4 276 39.8Q276 41.4 275.8 43.1ZM264.6 36.9Q264.6 34.1 262.7 32.4Q260.7 30.7 257.8 30.7Q255 30.7 253.1 32.3Q251.2 33.9 250.7 36.9ZM303.6 21.9V33.7H300.5Q296.4 33.7 294.3 35.5Q292.2 37.2 292.2 41.7V58.5H281.1V22.3H292.2V28.4Q294.2 25.4 297.1 23.7Q300 21.9 303.6 21.9Z"/>
</svg>
